<?xml version="1.0" encoding="utf-8"?>
<!-- Generator: Adobe Illustrator 23.0.0, SVG Export Plug-In . SVG Version: 6.00 Build 0)  -->
<svg version="1.1" id="Capa_1" focusable="false" xmlns="http://www.w3.org/2000/svg" xmlns:xlink="http://www.w3.org/1999/xlink"
	 x="0px" y="0px" viewBox="0 0 448 512" style="enable-background:new 0 0 448 512;" xml:space="preserve">
<style type="text/css">
	.st0{fill:#89DD86;}
</style>
<g>
	<g id="XMLID_1_">
		<g>
			<path class="st0" d="M380.9,97.1c41.9,42,67.1,97.7,67.1,157c0,122.4-101.8,222-224.1,222h-0.1c-37.2,0-73.7-9.3-106.1-27L0,480
				l31.5-115C12.1,331.3,1.9,293.1,1.9,254c0-122.4,99.6-222,222-222C283.2,32,339,55.1,380.9,97.1z M410.5,254.1
				c0.1-49.3-21.3-95.6-56.1-130.5S273.3,69.5,224,69.5C122.2,69.5,39.4,152.3,39.4,254c0,34.9,9.7,68.8,28.2,98.2l4.4,7l-18.6,68.1
				l69.8-18.3l6.7,4c28.3,16.8,60.8,25.7,94,25.7C325.6,438.7,410.5,355.9,410.5,254.1z"/>
		</g>
		<g>
		</g>
	</g>
	<path class="st0" d="M335.6,307.1c1.4,2.3,1.4,13.4-3.2,26.4s-26.7,24.8-37.4,26.4c-17.6,2.6-31.4,1.3-66.6-13.9
		c-55.7-24.1-92-80.1-94.8-83.8c-2.7-3.7-22.6-30.1-22.6-57.4s14.3-40.7,19.4-46.3c5.1-5.5,11.1-6.9,14.8-6.9s7.4,0,10.6,0.2
		c3.4,0.2,8-1.3,12.5,9.5c4.6,11.1,15.7,38.4,17.1,41.2c1.4,2.8,2.3,6,0.5,9.7c-10.6,21.2-22,20.5-16.3,30.3
		c21.5,36.9,42.9,49.7,75.5,66c5.5,2.8,8.8,2.3,12-1.4c3.3-3.8,13.9-16.2,17.6-21.8c3.7-5.6,7.4-4.7,12.5-2.8
		c5.1,1.8,32.4,15.2,37.9,18C330.6,303.2,334.3,304.6,335.6,307.1z"/>
</g>
</svg>
